<?xml version="1.0" encoding="UTF-8" standalone="no"?>
<!-- Created with Inkscape (http://www.inkscape.org/) -->

<svg
   xmlns:dc="http://purl.org/dc/elements/1.1/"
   xmlns:cc="http://creativecommons.org/ns#"
   xmlns:rdf="http://www.w3.org/1999/02/22-rdf-syntax-ns#"
   xmlns:svg="http://www.w3.org/2000/svg"
   xmlns="http://www.w3.org/2000/svg"
   xmlns:sodipodi="http://sodipodi.sourceforge.net/DTD/sodipodi-0.dtd"
   xmlns:inkscape="http://www.inkscape.org/namespaces/inkscape"
   width="210mm"
   height="297mm"
   viewBox="0 0 210 297"
   version="1.1"
   id="svg8"
   inkscape:version="0.92.2 (5c3e80d, 2017-08-06)"
   sodipodi:docname="fasciadevelopment.svg">
  <defs
     id="defs2" />
  <sodipodi:namedview
     id="base"
     pagecolor="#ffffff"
     bordercolor="#666666"
     borderopacity="1.0"
     inkscape:pageopacity="0.0"
     inkscape:pageshadow="2"
     inkscape:zoom="1"
     inkscape:cx="511.4777"
     inkscape:cy="490.07425"
     inkscape:document-units="mm"
     inkscape:current-layer="layer1"
     showgrid="true"
     showguides="true"
     inkscape:window-width="1920"
     inkscape:window-height="1001"
     inkscape:window-x="-9"
     inkscape:window-y="-9"
     inkscape:window-maximized="1">
    <inkscape:grid
       type="xygrid"
       id="grid4548" />
  </sodipodi:namedview>
  <metadata
     id="metadata5">
    <rdf:RDF>
      <cc:Work
         rdf:about="">
        <dc:format>image/svg+xml</dc:format>
        <dc:type
           rdf:resource="http://purl.org/dc/dcmitype/StillImage" />
        <dc:title></dc:title>
      </cc:Work>
    </rdf:RDF>
  </metadata>
  <g
     inkscape:label="Layer 1"
     inkscape:groupmode="layer"
     id="layer1">
    <path
       style="fill:none;stroke:#000000;stroke-width:0.5;stroke-linecap:butt;stroke-linejoin:miter;stroke-opacity:1;stroke-miterlimit:4;stroke-dasharray:none"
       d="m 71.019735,83.940789 -0.39787,6.96272 c 0,0 -1.25924,4.480938 -3.636529,6.604636 l -4.416352,3.668355 -6.270427,4.98133 -6.127192,4.91766 c -2.018199,1.6198 -3.35931,3.37631 -4.575501,5.93623 -1.216191,2.55992 -1.621875,4.68485 -1.456203,8.51441 0.165673,3.82956 0.867473,4.29363 2.56228,8.08472 1.694809,3.79109 4.639162,5.49854 4.639162,5.49854 0,0 5.177593,2.5623 8.347303,4.03441 3.16971,1.4721 4.857847,1.93318 6.954763,2.53841 3.423253,0.98805 3.469423,4.51185 3.469423,4.51185 l 1.265225,4.36859"
       id="path3699"
       inkscape:connector-curvature="0"
       sodipodi:nodetypes="cccccszzzczscc"
       inkscape:export-xdpi="96"
       inkscape:export-ydpi="96" />
    <path
       style="fill:none;stroke:#000000;stroke-width:0.5;stroke-linecap:butt;stroke-linejoin:miter;stroke-opacity:1;stroke-miterlimit:4;stroke-dasharray:none"
       d="m 80.282141,83.821428 c 0,0 -1.52254,4.659469 -2.116666,8.164285 -0.594126,3.504816 -1.165363,4.35655 -1.511904,11.036897 -0.346542,6.68036 0.696627,7.09063 0.30238,17.23572 -0.394247,10.1451 -0.03994,14.39747 -0.302379,14.66548 -0.262435,0.26801 0.134528,7.20648 0.30238,9.97857 0.167851,2.77208 1.209524,9.97857 1.209524,9.97857"
       id="path3701"
       inkscape:connector-curvature="0"
       sodipodi:nodetypes="czzzzzc"
       inkscape:export-xdpi="96"
       inkscape:export-ydpi="96" />
    <path
       style="fill:none;stroke:#000000;stroke-width:0.25;stroke-linecap:butt;stroke-linejoin:miter;stroke-opacity:1;stroke-miterlimit:4;stroke-dasharray:none"
       d="m 72.008285,85.927901 c 0,0 0.06298,1.52819 -10e-7,2.675563 -0.06298,1.147373 -0.435709,3.291265 -0.858159,4.788263 -0.422449,1.496998 -1.480346,3.156084 -2.279184,4.229371 -0.798839,1.073287 -2.535458,2.434312 -3.66651,3.369222 -1.131052,0.93492 -1.945454,1.39065 -3.071941,2.27919 -1.126487,0.88854 -3.171037,2.77465 -3.666511,3.07194 -1.783708,1.28823 -2.062807,1.78259 -4.062889,3.07194 -2.000082,1.28935 -3.235534,2.37644 -4.294773,3.46832 -1.059239,1.09188 -1.442734,1.60869 -2.180087,2.87375 -0.737352,1.26506 -1.675904,3.226 -2.0473,4.75656 -0.371396,1.53056 -0.297286,3.36922 -0.297286,4.26108 0,0.89185 -0.05023,2.95421 0.495474,4.45926 1.228448,3.38807 2.220123,5.07683 2.840061,5.8466 0.693664,0.99095 2.675562,2.87375 4.558364,3.9638 1.882804,1.09004 3.270131,1.38733 6.441167,2.87375 3.171037,1.48642 4.425578,1.48642 6.407476,2.18009 1.981896,0.69366 3.932084,2.47737 4.427558,3.46832 0.495475,0.99095 1.617229,5.54931 1.617229,5.54931"
       id="path3703"
       inkscape:connector-curvature="0"
       sodipodi:nodetypes="czzzzzczzzzzsccscsc"
       inkscape:export-xdpi="96"
       inkscape:export-ydpi="96" />
    <path
       style="fill:none;stroke:#000000;stroke-width:0.25;stroke-linecap:butt;stroke-linejoin:miter;stroke-opacity:1;stroke-miterlimit:4;stroke-dasharray:none"
       d="m 78.052083,85.201042 -1.058334,4.7625 -1.455208,7.805208 -0.529167,7.9375 c 0,0 0.04334,6.07176 0.264584,10.05417 0,0 -0.132292,3.0427 0.132291,7.27603 0.264584,4.23334 0.264583,10.98022 0,12.03855 -0.264583,1.05833 0.132292,7.9375 0.396875,9.65729 0.264584,1.71979 0.661459,7.80521 0.661459,7.80521"
       id="path4510"
       inkscape:connector-curvature="0"
       sodipodi:nodetypes="ccccssssc"
       inkscape:export-xdpi="96"
       inkscape:export-ydpi="96" />
    <path
       style="fill:none;stroke:#000000;stroke-width:0.5;stroke-linecap:butt;stroke-linejoin:miter;stroke-miterlimit:4;stroke-dasharray:none;stroke-opacity:1"
       d="m 125.51367,84.868889 -0.39787,6.96272 c 0,0 -1.25924,4.480937 -3.63653,6.604635 l -4.41635,3.668366 -6.27043,4.98136 -6.12719,4.91768 c -2.0182,1.61981 -3.35931,3.37634 -4.5755,5.93627 -1.216192,2.55993 -1.621876,4.68487 -1.456204,8.51443 0.165673,3.82956 0.867473,4.29363 2.562284,8.08472 1.69481,3.79109 4.63916,5.49854 4.63916,5.49854 0,0 5.17759,2.5623 8.3473,4.03441 3.16971,1.4721 4.85785,1.93318 6.95476,2.53841 3.42326,0.98805 3.46943,4.51185 3.46943,4.51185 l 1.26522,4.36859"
       id="path3699-1"
       inkscape:connector-curvature="0"
       sodipodi:nodetypes="cccccszzzczscc"
       inkscape:export-xdpi="96"
       inkscape:export-ydpi="96" />
    <path
       style="fill:none;stroke:#000000;stroke-width:0.5;stroke-linecap:butt;stroke-linejoin:miter;stroke-miterlimit:4;stroke-dasharray:none;stroke-opacity:1"
       d="m 134.77608,84.749528 c 0,0 -1.52254,4.659469 -2.11667,8.164285 -0.59412,3.504815 -1.16536,4.356549 -1.5119,11.036917 -0.34655,6.6804 0.69662,7.09067 0.30238,17.23582 -0.39425,10.1451 -0.0399,14.39747 -0.30238,14.66548 -0.26244,0.26801 0.13452,7.20648 0.30238,9.97857 0.16785,2.77208 1.20952,9.97857 1.20952,9.97857"
       id="path3701-9"
       inkscape:connector-curvature="0"
       sodipodi:nodetypes="czzzzzc"
       inkscape:export-xdpi="96"
       inkscape:export-ydpi="96" />
    <path
       style="fill:none;stroke:#000000;stroke-width:0.25;stroke-linecap:butt;stroke-linejoin:miter;stroke-miterlimit:4;stroke-dasharray:none;stroke-opacity:1"
       d="m 126.50222,86.856001 c 0,0 0.063,1.52819 0,2.675563 -0.063,1.147373 -0.43571,3.291265 -0.85816,4.788263 -0.42245,1.496997 -1.48035,3.156083 -2.27918,4.22937 -0.79884,1.073287 -2.53546,2.434313 -3.66651,3.369233 -1.13106,0.93492 -1.94546,1.39066 -3.07194,2.2792 -1.12649,0.88855 -3.17104,2.77467 -3.66652,3.07196 -1.7837,1.28824 -2.0628,1.7826 -4.06288,3.07196 -2.00009,1.28935 -3.23554,2.37645 -4.29478,3.46834 -1.05924,1.09188 -1.44273,1.6087 -2.18008,2.87376 -0.73736,1.26507 -1.67591,3.22602 -2.0473,4.75659 -0.3714,1.53056 -0.29729,3.36922 -0.29729,4.26108 0,0.89185 -0.0502,2.95421 0.49547,4.45926 1.22845,3.38807 2.22013,5.07683 2.84006,5.8466 0.69367,0.99095 2.67557,2.87375 4.55837,3.9638 1.8828,1.09004 3.27013,1.38733 6.44117,2.87375 3.17103,1.48642 4.42557,1.48642 6.40747,2.18009 1.9819,0.69366 3.93209,2.47737 4.42756,3.46832 0.49547,0.99095 1.61723,5.54931 1.61723,5.54931"
       id="path3703-2"
       inkscape:connector-curvature="0"
       sodipodi:nodetypes="czzzzzczzzzzsccscsc"
       inkscape:export-xdpi="96"
       inkscape:export-ydpi="96" />
    <path
       style="fill:none;stroke:#000000;stroke-width:0.25;stroke-linecap:butt;stroke-linejoin:miter;stroke-miterlimit:4;stroke-dasharray:none;stroke-opacity:1"
       d="m 132.54602,86.129142 -1.05834,4.7625 -1.4552,7.805207 -0.52917,7.937531 c 0,0 0.0433,6.0718 0.26458,10.05423 0,0 -0.13229,3.04272 0.13229,7.27606 0.26459,4.23334 0.26459,10.98022 0,12.03855 -0.26458,1.05833 0.1323,7.9375 0.39688,9.65729 0.26458,1.71979 0.66146,7.80521 0.66146,7.80521"
       id="path4510-5"
       inkscape:connector-curvature="0"
       sodipodi:nodetypes="ccccssssc"
       inkscape:export-xdpi="96"
       inkscape:export-ydpi="96" />
    <path
       style="fill:none;stroke:#000000;stroke-width:0.25;stroke-linecap:butt;stroke-linejoin:miter;stroke-opacity:1;stroke-miterlimit:4;stroke-dasharray:none"
       d="m 115.09375,105.70625 c 0,0 -5.72568,3.83068 -7.27604,6.35 -2.11667,3.43958 -1.98438,2.38125 -3.30729,7.67292 -1.32292,3.96875 -1.32292,6.61458 0,10.58333 1.32292,3.96875 1.32292,6.61459 3.96875,9.26042 2.64583,2.64583 6.61458,3.43958 6.61458,3.43958"
       id="path4550"
       inkscape:connector-curvature="0"
       sodipodi:nodetypes="csczzc"
       inkscape:export-xdpi="96"
       inkscape:export-ydpi="96" />
    <path
       style="fill:none;stroke:#000000;stroke-width:0.5;stroke-linecap:butt;stroke-linejoin:miter;stroke-miterlimit:4;stroke-dasharray:none;stroke-opacity:1"
       d="m 181.08646,84.469976 -0.39787,6.96272 c 0,0 -1.25924,4.480937 -3.63653,6.604635 l -4.41635,3.668359 -6.27043,4.98136 -6.12719,4.91769 c -2.0182,1.61981 -3.35931,3.37633 -4.5755,5.93627 -1.21619,2.55993 -1.62187,4.68487 -1.4562,8.51445 0.16567,3.82958 0.86747,4.29366 2.56228,8.08476 1.69481,3.79109 4.63916,5.49854 4.63916,5.49854 0,0 5.17759,2.5623 8.3473,4.03441 3.16971,1.4721 4.85785,1.93318 6.95477,2.53841 3.42325,0.98805 3.46942,4.51185 3.46942,4.51185 l 1.26522,4.36859"
       id="path3699-9"
       inkscape:connector-curvature="0"
       sodipodi:nodetypes="cccccszzzczscc"
       inkscape:export-xdpi="96"
       inkscape:export-ydpi="96" />
    <path
       style="fill:none;stroke:#000000;stroke-width:0.5;stroke-linecap:butt;stroke-linejoin:miter;stroke-miterlimit:4;stroke-dasharray:none;stroke-opacity:1"
       d="m 190.34887,84.350615 c 0,0 -1.52254,4.659469 -2.11667,8.164285 -0.59412,3.504815 -1.16536,4.356549 -1.5119,11.03691 -0.34654,6.6804 0.69663,7.09068 0.30238,17.23582 -0.39425,10.14516 -0.0399,14.39754 -0.30238,14.66555 -0.26244,0.26801 0.13453,7.20648 0.30238,9.97857 0.16785,2.77208 1.20952,9.97857 1.20952,9.97857"
       id="path3701-1"
       inkscape:connector-curvature="0"
       sodipodi:nodetypes="czzzzzc"
       inkscape:export-xdpi="96"
       inkscape:export-ydpi="96" />
    <path
       style="fill:none;stroke:#000000;stroke-width:0.25;stroke-linecap:butt;stroke-linejoin:miter;stroke-miterlimit:4;stroke-dasharray:none;stroke-opacity:1"
       d="m 182.07501,86.457088 c 0,0 0.063,1.52819 0,2.675563 -0.063,1.147373 -0.43571,3.291265 -0.85816,4.788263 -0.42245,1.496997 -1.48034,3.156083 -2.27918,4.22937 -0.79884,1.073287 -2.53546,2.434316 -3.66651,3.369226 -1.13105,0.93493 -1.94546,1.39066 -3.07194,2.27921 -1.12649,0.88854 -3.17104,2.77466 -3.66651,3.07195 -1.78371,1.28824 -2.06281,1.7826 -4.06289,3.07196 -2.00008,1.28936 -3.23554,2.37646 -4.29478,3.46834 -1.05923,1.09189 -1.44273,1.6087 -2.18008,2.87377 -0.73735,1.26507 -1.67591,3.22601 -2.0473,4.75658 -0.3714,1.53057 -0.29729,3.36925 -0.29729,4.26111 0,0.89185 -0.0502,2.95422 0.49548,4.45928 1.22844,3.38809 2.22012,5.07685 2.84006,5.84662 0.69366,0.99095 2.67556,2.87375 4.55836,3.9638 1.8828,1.09004 3.27013,1.38733 6.44117,2.87375 3.17103,1.48642 4.42558,1.48642 6.40747,2.18009 1.9819,0.69366 3.93209,2.47737 4.42756,3.46832 0.49548,0.99095 1.61723,5.54931 1.61723,5.54931"
       id="path3703-5"
       inkscape:connector-curvature="0"
       sodipodi:nodetypes="czzzzzczzzzzsccscsc"
       inkscape:export-xdpi="96"
       inkscape:export-ydpi="96" />
    <path
       style="fill:none;stroke:#000000;stroke-width:0.25;stroke-linecap:butt;stroke-linejoin:miter;stroke-miterlimit:4;stroke-dasharray:none;stroke-opacity:1"
       d="m 188.11881,85.730229 -1.05833,4.7625 -1.45521,7.805207 -0.52917,7.937534 c 0,0 0.0433,6.07179 0.26458,10.05423 0,0 -0.13229,3.04271 0.1323,7.27607 0.26458,4.23336 0.26458,10.98027 0,12.0386 -0.26459,1.05833 0.13229,7.9375 0.39687,9.65729 0.26458,1.71979 0.66146,7.80521 0.66146,7.80521"
       id="path4510-8"
       inkscape:connector-curvature="0"
       sodipodi:nodetypes="ccccssssc"
       inkscape:export-xdpi="96"
       inkscape:export-ydpi="96" />
    <path
       style="fill:none;stroke:#000000;stroke-width:0.26458332px;stroke-linecap:butt;stroke-linejoin:miter;stroke-opacity:1"
       d="m 168.01041,107.55834 c 0,0 -1.32291,0.26458 -2.64583,1.58749 -1.32292,1.32292 1.01466,4.61091 1.05834,4.89479 0.26458,1.7198 2.91041,5.68855 3.30728,10.84792 0.40585,5.27608 -3.0427,10.71562 -3.0427,13.36146 0,3.96875 0,-1.32292 -0.26459,1.5875 -0.11977,1.31748 2.91042,2.38125 2.91042,2.38125"
       id="path4576"
       inkscape:connector-curvature="0"
       sodipodi:nodetypes="ccsscsc"
       inkscape:export-xdpi="96"
       inkscape:export-ydpi="96" />
    <path
       style="fill:none;stroke:#000000;stroke-width:0.26458332px;stroke-linecap:butt;stroke-linejoin:miter;stroke-opacity:1"
       d="m 154.78125,125.02083 3.96875,-2.64583 2.64583,-3.96875 2.64583,-2.64583"
       id="path4578"
       inkscape:connector-curvature="0"
       inkscape:export-xdpi="96"
       inkscape:export-ydpi="96" />
    <path
       style="fill:none;stroke:#000000;stroke-width:0.26458332px;stroke-linecap:butt;stroke-linejoin:miter;stroke-opacity:1"
       d="m 154.78125,126.34375 h 3.96875 6.61458"
       id="path4580"
       inkscape:connector-curvature="0"
       inkscape:export-xdpi="96"
       inkscape:export-ydpi="96" />
    <path
       style="fill:none;stroke:#000000;stroke-width:0.26458332px;stroke-linecap:butt;stroke-linejoin:miter;stroke-opacity:1"
       d="m 154.78125,127.66667 3.96875,2.64583 2.64583,2.64583 3.96875,2.64584"
       id="path4582"
       inkscape:connector-curvature="0"
       inkscape:export-xdpi="96"
       inkscape:export-ydpi="96" />
    <path
       style="fill:none;stroke:#000000;stroke-width:0.26458332px;stroke-linecap:butt;stroke-linejoin:miter;stroke-opacity:1"
       d="M 160.07291,120.52291 V 114.4375"
       id="path4584"
       inkscape:connector-curvature="0"
       sodipodi:nodetypes="cc"
       inkscape:export-xdpi="96"
       inkscape:export-ydpi="96" />
    <path
       style="fill:none;stroke:#000000;stroke-width:0.26458332px;stroke-linecap:butt;stroke-linejoin:miter;stroke-opacity:1"
       d="m 157.95625,122.90417 4.7625,0.79375 3.96875,-1.32292"
       id="path4586"
       inkscape:connector-curvature="0"
       sodipodi:nodetypes="ccc"
       inkscape:export-xdpi="96"
       inkscape:export-ydpi="96" />
    <path
       style="fill:none;stroke:#000000;stroke-width:0.26458332px;stroke-linecap:butt;stroke-linejoin:miter;stroke-opacity:1"
       d="m 162.71875,123.69792 1.32291,-3.96875 2.64584,-1.32292"
       id="path4588"
       inkscape:connector-curvature="0"
       inkscape:export-xdpi="96"
       inkscape:export-ydpi="96" />
    <path
       style="fill:none;stroke:#000000;stroke-width:0.26458332px;stroke-linecap:butt;stroke-linejoin:miter;stroke-opacity:1"
       d="m 158.75,126.07917 5.29166,-1.05834 3.96875,-1.32291"
       id="path4590"
       inkscape:connector-curvature="0"
       sodipodi:nodetypes="ccc"
       inkscape:export-xdpi="96"
       inkscape:export-ydpi="96" />
    <path
       style="fill:none;stroke:#000000;stroke-width:0.26458332px;stroke-linecap:butt;stroke-linejoin:miter;stroke-opacity:1"
       d="m 162.71875,126.34375 2.64583,1.32292 1.32292,2.64583"
       id="path4592"
       inkscape:connector-curvature="0"
       inkscape:export-xdpi="96"
       inkscape:export-ydpi="96" />
    <path
       style="fill:none;stroke:#000000;stroke-width:0.26458332px;stroke-linecap:butt;stroke-linejoin:miter;stroke-opacity:1"
       d="m 168.01041,128.98958 -5.29166,1.32292 -1.32292,2.38125 1.32292,4.23333 1.32292,1.32292"
       id="path4594"
       inkscape:connector-curvature="0"
       sodipodi:nodetypes="ccccc"
       inkscape:export-xdpi="96"
       inkscape:export-ydpi="96" />
    <path
       style="fill:none;stroke:#000000;stroke-width:0.26458332px;stroke-linecap:butt;stroke-linejoin:miter;stroke-opacity:1"
       d="m 98.689582,125.02083 h 4.233328"
       id="path4598"
       inkscape:connector-curvature="0"
       sodipodi:nodetypes="cc"
       inkscape:export-xdpi="96"
       inkscape:export-ydpi="96" />
    <path
       style="fill:none;stroke:#000000;stroke-width:0.26458332px;stroke-linecap:butt;stroke-linejoin:miter;stroke-opacity:1"
       d="m 103.1875,122.375 -2.64583,2.64583 2.64583,3.96875"
       id="path4600"
       inkscape:connector-curvature="0"
       sodipodi:nodetypes="ccc"
       inkscape:export-xdpi="96"
       inkscape:export-ydpi="96" />
    <path
       style="fill:none;stroke:#000000;stroke-width:0.5;stroke-linecap:butt;stroke-linejoin:miter;stroke-miterlimit:4;stroke-dasharray:none;stroke-opacity:1"
       d="m 70.490566,164.9032 -0.39787,6.96272 c 0,0 -1.25924,4.48094 -3.636529,6.60463 l -4.416352,3.66836 -6.270427,4.98133 -6.127192,4.91766 c -2.0182,1.6198 -3.359311,3.37631 -4.575502,5.93623 -1.216191,2.55992 -1.621875,4.68485 -1.456203,8.51441 0.165673,3.82956 0.867473,4.29363 2.56228,8.08472 1.69481,3.79109 4.639163,5.49854 4.639163,5.49854 0,0 5.177593,2.5623 8.347303,4.03441 3.16971,1.4721 4.857847,1.93318 6.954763,2.53841 3.423253,0.98805 3.469423,4.51185 3.469423,4.51185 l 1.265225,4.36859"
       id="path3699-6"
       inkscape:connector-curvature="0"
       sodipodi:nodetypes="cccccszzzczscc"
       inkscape:export-xdpi="96"
       inkscape:export-ydpi="96" />
    <path
       style="fill:none;stroke:#000000;stroke-width:0.5;stroke-linecap:butt;stroke-linejoin:miter;stroke-miterlimit:4;stroke-dasharray:none;stroke-opacity:1"
       d="m 79.752972,164.78384 c 0,0 -1.522539,4.65947 -2.116666,8.16428 -0.594125,3.50482 -1.165363,4.35655 -1.511904,11.0369 -0.346543,6.68036 0.696627,7.09063 0.302379,17.23572 -0.394247,10.1451 -0.03994,14.39747 -0.302379,14.66548 -0.262435,0.26801 0.134528,7.20648 0.302382,9.97857 0.167849,2.77208 1.209524,9.97857 1.209524,9.97857"
       id="path3701-2"
       inkscape:connector-curvature="0"
       sodipodi:nodetypes="czzzzzc"
       inkscape:export-xdpi="96"
       inkscape:export-ydpi="96" />
    <path
       style="fill:none;stroke:#000000;stroke-width:0.25;stroke-linecap:butt;stroke-linejoin:miter;stroke-miterlimit:4;stroke-dasharray:none;stroke-opacity:1"
       d="m 71.479115,166.89031 c 0,0 0.06298,1.52819 0,2.67556 -0.06298,1.14738 -0.43571,3.29127 -0.85816,4.78827 -0.422449,1.49699 -1.480345,3.15608 -2.279183,4.22937 -0.798839,1.07328 -2.535458,2.43431 -3.66651,3.36922 -1.131052,0.93492 -1.945454,1.39065 -3.071941,2.27919 -1.126487,0.88854 -3.171037,2.77465 -3.666511,3.07194 -1.783708,1.28823 -2.062807,1.78259 -4.062889,3.07194 -2.000083,1.28935 -3.235535,2.37644 -4.294774,3.46832 -1.059239,1.09188 -1.442734,1.60869 -2.180087,2.87375 -0.737352,1.26506 -1.675904,3.226 -2.0473,4.75656 -0.371396,1.53056 -0.297286,3.36922 -0.297286,4.26108 0,0.89185 -0.05023,2.95421 0.495474,4.45926 1.228449,3.38807 2.220124,5.07683 2.840061,5.8466 0.693665,0.99095 2.675563,2.87375 4.558365,3.9638 1.882804,1.09004 3.270131,1.38733 6.441167,2.87375 3.171037,1.48642 4.425578,1.48642 6.407476,2.18009 1.981896,0.69366 3.932084,2.47737 4.427558,3.46832 0.495475,0.99095 1.617229,5.54931 1.617229,5.54931"
       id="path3703-0"
       inkscape:connector-curvature="0"
       sodipodi:nodetypes="czzzzzczzzzzsccscsc"
       inkscape:export-xdpi="96"
       inkscape:export-ydpi="96" />
    <path
       style="fill:none;stroke:#000000;stroke-width:0.25;stroke-linecap:butt;stroke-linejoin:miter;stroke-miterlimit:4;stroke-dasharray:none;stroke-opacity:1"
       d="m 77.522913,166.16345 -1.058333,4.7625 -1.455209,7.80521 -0.529166,7.9375 c 0,0 0.04334,6.07176 0.264583,10.05417 0,0 -0.132292,3.0427 0.132292,7.27603 0.264583,4.23334 0.264583,10.98022 0,12.03855 -0.264584,1.05833 0.132291,7.9375 0.396875,9.65729 0.264583,1.71979 0.661458,7.80521 0.661458,7.80521"
       id="path4510-7"
       inkscape:connector-curvature="0"
       sodipodi:nodetypes="ccccssssc"
       inkscape:export-xdpi="96"
       inkscape:export-ydpi="96" />
    <path
       style="fill:none;stroke:#000000;stroke-width:0.5;stroke-linecap:butt;stroke-linejoin:miter;stroke-miterlimit:4;stroke-dasharray:none;stroke-opacity:1"
       d="m 126.58217,164.90332 -0.39787,6.96272 c 0,0 -1.25924,4.48093 -3.63653,6.60463 l -4.41635,3.66836 -6.27043,4.98133 -6.12719,4.91766 c -2.0182,1.6198 -3.35931,3.37631 -4.5755,5.93623 -1.216187,2.55992 -1.621877,4.68485 -1.456197,8.51441 0.16567,3.82956 0.867467,4.29363 2.562277,8.08472 1.6948,3.79109 4.63916,5.49854 4.63916,5.49854 0,0 5.17759,2.5623 8.3473,4.03441 3.16971,1.4721 4.85785,1.93318 6.95476,2.53841 3.42326,0.98805 3.46943,4.51185 3.46943,4.51185 l 1.26522,4.36859"
       id="path3699-0"
       inkscape:connector-curvature="0"
       sodipodi:nodetypes="cccccszzzczscc"
       inkscape:export-xdpi="96"
       inkscape:export-ydpi="96" />
    <path
       style="fill:none;stroke:#000000;stroke-width:0.5;stroke-linecap:butt;stroke-linejoin:miter;stroke-miterlimit:4;stroke-dasharray:none;stroke-opacity:1"
       d="m 135.84458,164.78395 c 0,0 -1.52254,4.65947 -2.11667,8.16429 -0.59413,3.50482 -1.16536,4.35655 -1.5119,11.0369 -0.34655,6.68036 0.69662,7.09063 0.30237,17.23572 -0.39424,10.1451 -0.0399,14.39747 -0.30237,14.66548 -0.26244,0.26801 0.13452,7.20648 0.30238,9.97857 0.16785,2.77208 1.20952,9.97857 1.20952,9.97857"
       id="path3701-5"
       inkscape:connector-curvature="0"
       sodipodi:nodetypes="czzzzzc"
       inkscape:export-xdpi="96"
       inkscape:export-ydpi="96" />
    <path
       style="fill:none;stroke:#000000;stroke-width:0.25;stroke-linecap:butt;stroke-linejoin:miter;stroke-miterlimit:4;stroke-dasharray:none;stroke-opacity:1"
       d="m 127.57072,166.89043 c 0,0 0.063,1.52819 0,2.67556 -0.063,1.14737 -0.43571,3.29127 -0.85816,4.78826 -0.42245,1.497 -1.48035,3.15609 -2.27918,4.22937 -0.79884,1.07329 -2.53546,2.43432 -3.66651,3.36923 -1.13106,0.93492 -1.94546,1.39065 -3.07195,2.27919 -1.12648,0.88854 -3.17103,2.77465 -3.66651,3.07194 -1.7837,1.28823 -2.0628,1.78259 -4.06289,3.07194 -2.00008,1.28935 -3.23553,2.37644 -4.29477,3.46832 -1.05924,1.09188 -1.44273,1.60869 -2.18009,2.87375 -0.73735,1.26506 -0.30316,3.70909 1.01976,5.03201 1.32291,1.32292 1.32291,1.32292 1.32291,3.96875 0,2.64583 0,2.64583 -1.81053,4.47615 -1.50882,1.52531 -2.15822,2.13843 0.45881,5.84659 0.69367,0.99095 2.67557,2.87375 4.55837,3.9638 1.8828,1.09004 3.27013,1.38733 6.44116,2.87375 3.17104,1.48642 4.42558,1.48642 6.40748,2.18009 1.9819,0.69366 3.93208,2.47737 4.42756,3.46832 0.49547,0.99095 1.61723,5.54931 1.61723,5.54931"
       id="path3703-7"
       inkscape:connector-curvature="0"
       sodipodi:nodetypes="czzzzzczzzzzsccscsc"
       inkscape:export-xdpi="96"
       inkscape:export-ydpi="96" />
    <path
       style="fill:none;stroke:#000000;stroke-width:0.25;stroke-linecap:butt;stroke-linejoin:miter;stroke-miterlimit:4;stroke-dasharray:none;stroke-opacity:1"
       d="m 133.61452,166.16357 -1.05834,4.7625 -1.45521,7.80521 -0.52916,7.9375 c 0,0 0.0433,6.07176 0.26458,10.05417 0,0 -0.13229,3.0427 0.13229,7.27603 0.26459,4.23334 0.26459,10.98022 0,12.03855 -0.26458,1.05833 0.13229,7.9375 0.39688,9.65729 0.26458,1.71979 0.66146,7.80521 0.66146,7.80521"
       id="path4510-3"
       inkscape:connector-curvature="0"
       sodipodi:nodetypes="ccccssssc"
       inkscape:export-xdpi="96"
       inkscape:export-ydpi="96" />
    <path
       style="fill:none;stroke:#000000;stroke-width:0.26458332px;stroke-linecap:butt;stroke-linejoin:miter;stroke-opacity:1"
       d="m 99.48332,205.71875 h 5.29166"
       id="path4598-4"
       inkscape:connector-curvature="0"
       sodipodi:nodetypes="cc"
       inkscape:export-xdpi="96"
       inkscape:export-ydpi="96" />
    <path
       style="fill:none;stroke:#000000;stroke-width:0.26458332px;stroke-linecap:butt;stroke-linejoin:miter;stroke-opacity:1"
       d="m 104.51042,203.07292 -2.64585,2.64583 2.64585,2.64583"
       id="path4600-8"
       inkscape:connector-curvature="0"
       sodipodi:nodetypes="ccc"
       inkscape:export-xdpi="96"
       inkscape:export-ydpi="96" />
    <path
       style="fill:none;stroke:#000000;stroke-width:0.5;stroke-linecap:butt;stroke-linejoin:miter;stroke-miterlimit:4;stroke-dasharray:none;stroke-opacity:1"
       d="m 182.14467,164.9032 -0.39787,6.96272 c 0,0 -1.25924,4.48094 -3.63653,6.60463 l -4.41635,3.66836 -6.27043,4.98133 -6.12719,4.91766 c -2.0182,1.6198 -3.35931,3.37631 -4.5755,5.93623 -1.21619,2.55992 -1.62188,4.68485 -1.45621,8.51441 0.16568,3.82956 0.86748,4.29363 2.56228,8.08472 1.69481,3.79109 4.63917,5.49854 4.63917,5.49854 0,0 5.17759,2.5623 8.3473,4.03441 3.16971,1.4721 4.85785,1.93318 6.95476,2.53841 3.42326,0.98805 3.46943,4.51185 3.46943,4.51185 l 1.26522,4.36859"
       id="path3699-6-7"
       inkscape:connector-curvature="0"
       sodipodi:nodetypes="cccccszzzczscc"
       inkscape:export-xdpi="96"
       inkscape:export-ydpi="96" />
    <path
       style="fill:none;stroke:#000000;stroke-width:0.5;stroke-linecap:butt;stroke-linejoin:miter;stroke-miterlimit:4;stroke-dasharray:none;stroke-opacity:1"
       d="m 191.40707,164.78384 c 0,0 -1.52254,4.65947 -2.11666,8.16428 -0.59413,3.50482 -1.16537,4.35655 -1.51191,11.0369 -0.34654,6.68036 0.69663,7.09063 0.30238,17.23572 -0.39424,10.1451 -0.0399,14.39747 -0.30238,14.66548 -0.26243,0.26801 0.13453,7.20648 0.30239,9.97857 0.16784,2.77208 1.20952,9.97857 1.20952,9.97857"
       id="path3701-2-3"
       inkscape:connector-curvature="0"
       sodipodi:nodetypes="czzzzzc"
       inkscape:export-xdpi="96"
       inkscape:export-ydpi="96" />
    <path
       style="fill:none;stroke:#000000;stroke-width:0.25;stroke-linecap:butt;stroke-linejoin:miter;stroke-miterlimit:4;stroke-dasharray:none;stroke-opacity:1"
       d="m 183.13322,166.89031 c 0,0 0.063,1.52819 0,2.67556 -0.063,1.14738 -0.43571,3.29127 -0.85816,4.78827 -0.42245,1.49699 -1.48035,3.15608 -2.27919,4.22937 -0.79883,1.07328 -2.53545,2.43431 -3.66651,3.36922 -1.13105,0.93492 -1.94545,1.39065 -3.07194,2.27919 -1.12648,0.88854 -3.17103,2.77465 -3.66651,3.07194 -1.78371,1.28823 -2.0628,1.78259 -4.06289,3.07194 -2.00008,1.28935 -3.23553,2.37644 -4.29477,3.46832 -1.05924,1.09188 -1.44273,1.60869 -2.18009,2.87375 -0.73735,1.26506 3.66559,-4.22829 8.95726,-4.22829 5.29166,0 7.9375,6.61459 7.9375,13.22917 0,6.61458 -3.49993,12.4784 -4.98554,13.07498 -3.34884,1.34481 -11.53821,-3.52213 -10.91827,-2.75236 0.69367,0.99095 2.67556,2.87375 4.55837,3.9638 1.8828,1.09004 3.27013,1.38733 6.44116,2.87375 3.17104,1.48642 4.42558,1.48642 6.40748,2.18009 1.9819,0.69366 3.93208,2.47737 4.42756,3.46832 0.49547,0.99095 1.61723,5.54931 1.61723,5.54931"
       id="path3703-0-0"
       inkscape:connector-curvature="0"
       sodipodi:nodetypes="czzzzzczzzzzsccscsc"
       inkscape:export-xdpi="96"
       inkscape:export-ydpi="96" />
    <path
       style="fill:none;stroke:#000000;stroke-width:0.25;stroke-linecap:butt;stroke-linejoin:miter;stroke-miterlimit:4;stroke-dasharray:none;stroke-opacity:1"
       d="m 189.17701,166.16345 -1.05833,4.7625 -1.45521,7.80521 -0.52916,7.9375 c 0,0 0.0433,6.07176 0.26458,10.05417 0,0 -0.13229,3.0427 0.13229,7.27603 0.26458,4.23334 0.26458,10.98022 0,12.03855 -0.26458,1.05833 0.13229,7.9375 0.39688,9.65729 0.26458,1.71979 0.66145,7.80521 0.66145,7.80521"
       id="path4510-7-1"
       inkscape:connector-curvature="0"
       sodipodi:nodetypes="ccccssssc"
       inkscape:export-xdpi="96"
       inkscape:export-ydpi="96" />
    <path
       style="fill:none;stroke:#000000;stroke-width:0.26458332px;stroke-linecap:butt;stroke-linejoin:miter;stroke-opacity:1"
       d="m 155.57499,204.13172 8.20208,-2.64583 2.64583,-3.96875 2.64583,-2.64583"
       id="path4578-6"
       inkscape:connector-curvature="0"
       sodipodi:nodetypes="cccc"
       inkscape:export-xdpi="96"
       inkscape:export-ydpi="96" />
    <path
       style="fill:none;stroke:#000000;stroke-width:0.26458332px;stroke-linecap:butt;stroke-linejoin:miter;stroke-opacity:1"
       d="m 155.57499,205.45464 h 8.20208 6.61458"
       id="path4580-4"
       inkscape:connector-curvature="0"
       sodipodi:nodetypes="ccc"
       inkscape:export-xdpi="96"
       inkscape:export-ydpi="96" />
    <path
       style="fill:none;stroke:#000000;stroke-width:0.26458332px;stroke-linecap:butt;stroke-linejoin:miter;stroke-opacity:1"
       d="m 155.57499,206.77756 8.20208,2.64583 2.64583,2.64583 3.96875,2.64584"
       id="path4582-0"
       inkscape:connector-curvature="0"
       sodipodi:nodetypes="cccc"
       inkscape:export-xdpi="96"
       inkscape:export-ydpi="96" />
    <path
       style="fill:none;stroke:#000000;stroke-width:0.26458332px;stroke-linecap:butt;stroke-linejoin:miter;stroke-opacity:1"
       d="m 165.09998,199.6338 v -6.08541"
       id="path4584-0"
       inkscape:connector-curvature="0"
       sodipodi:nodetypes="cc"
       inkscape:export-xdpi="96"
       inkscape:export-ydpi="96" />
    <path
       style="fill:none;stroke:#000000;stroke-width:0.26458332px;stroke-linecap:butt;stroke-linejoin:miter;stroke-opacity:1"
       d="m 162.98332,202.01506 4.7625,0.79375 3.96875,-1.32292"
       id="path4586-7"
       inkscape:connector-curvature="0"
       sodipodi:nodetypes="ccc"
       inkscape:export-xdpi="96"
       inkscape:export-ydpi="96" />
    <path
       style="fill:none;stroke:#000000;stroke-width:0.26458332px;stroke-linecap:butt;stroke-linejoin:miter;stroke-opacity:1"
       d="m 167.74582,202.80881 1.32291,-3.96875 2.64584,-1.32292"
       id="path4588-6"
       inkscape:connector-curvature="0"
       inkscape:export-xdpi="96"
       inkscape:export-ydpi="96" />
    <path
       style="fill:none;stroke:#000000;stroke-width:0.26458332px;stroke-linecap:butt;stroke-linejoin:miter;stroke-opacity:1"
       d="m 161.13122,205.71923 5.29166,-1.05834 3.96875,-1.32291"
       id="path4590-2"
       inkscape:connector-curvature="0"
       sodipodi:nodetypes="ccc"
       inkscape:export-xdpi="96"
       inkscape:export-ydpi="96" />
    <path
       style="fill:none;stroke:#000000;stroke-width:0.26458332px;stroke-linecap:butt;stroke-linejoin:miter;stroke-opacity:1"
       d="m 170.9208,205.98379 -5.29166,1.32292 -1.32292,2.38125 1.32292,4.23333 1.32292,1.32292"
       id="path4594-5"
       inkscape:connector-curvature="0"
       sodipodi:nodetypes="ccccc"
       inkscape:export-xdpi="96"
       inkscape:export-ydpi="96" />
    <path
       style="fill:none;stroke:#000000;stroke-width:0.26458332px;stroke-linecap:butt;stroke-linejoin:miter;stroke-opacity:1"
       d="m 168.01041,207.04167 2.64584,3.96875"
       id="path4732"
       inkscape:connector-curvature="0"
       inkscape:export-xdpi="96"
       inkscape:export-ydpi="96" />
    <text
       xml:space="preserve"
       style="font-style:normal;font-weight:normal;font-size:6.5234766px;line-height:1.25;font-family:sans-serif;letter-spacing:0px;word-spacing:0px;fill:#000000;fill-opacity:1;stroke:none;stroke-width:0.16308692"
       x="54.840237"
       y="128.22505"
       id="text4736"
       transform="scale(0.83459329,1.1981884)"
       inkscape:export-xdpi="96"
       inkscape:export-ydpi="96"><tspan
         sodipodi:role="line"
         id="tspan4734"
         x="54.840237"
         y="128.22505"
         style="stroke-width:0.16308692">a</tspan></text>
    <text
       xml:space="preserve"
       style="font-style:normal;font-weight:normal;font-size:6.52347612px;line-height:1.25;font-family:sans-serif;letter-spacing:0px;word-spacing:0px;fill:#000000;fill-opacity:1;stroke:none;stroke-width:0.16308691"
       x="120.14649"
       y="128.22507"
       id="text4736-0"
       transform="scale(0.83459329,1.1981884)"
       inkscape:export-xdpi="96"
       inkscape:export-ydpi="96"><tspan
         sodipodi:role="line"
         id="tspan4734-3"
         x="120.14649"
         y="128.22507"
         style="stroke-width:0.16308691">b</tspan></text>
    <text
       xml:space="preserve"
       style="font-style:normal;font-weight:normal;font-size:6.52347565px;line-height:1.25;font-family:sans-serif;letter-spacing:0px;word-spacing:0px;fill:#000000;fill-opacity:1;stroke:none;stroke-width:0.16308691"
       x="189.89104"
       y="128.22507"
       id="text4736-0-3"
       transform="scale(0.83459329,1.1981884)"
       inkscape:export-xdpi="96"
       inkscape:export-ydpi="96"><tspan
         sodipodi:role="line"
         id="tspan4734-3-0"
         x="189.89104"
         y="128.22507"
         style="stroke-width:0.16308691">c</tspan></text>
    <text
       xml:space="preserve"
       style="font-style:normal;font-weight:normal;font-size:6.52347612px;line-height:1.25;font-family:sans-serif;letter-spacing:0px;word-spacing:0px;fill:#000000;fill-opacity:1;stroke:none;stroke-width:0.16308691"
       x="54.840206"
       y="197.12073"
       id="text4736-5"
       transform="scale(0.83459329,1.1981884)"
       inkscape:export-xdpi="96"
       inkscape:export-ydpi="96"><tspan
         sodipodi:role="line"
         id="tspan4734-6"
         x="54.840206"
         y="197.12073"
         style="stroke-width:0.16308691">d</tspan></text>
    <text
       xml:space="preserve"
       style="font-style:normal;font-weight:normal;font-size:6.52347565px;line-height:1.25;font-family:sans-serif;letter-spacing:0px;word-spacing:0px;fill:#000000;fill-opacity:1;stroke:none;stroke-width:0.16308691"
       x="120.14641"
       y="197.12074"
       id="text4736-0-0"
       transform="scale(0.83459329,1.1981884)"
       inkscape:export-xdpi="96"
       inkscape:export-ydpi="96"><tspan
         sodipodi:role="line"
         id="tspan4734-3-05"
         x="120.14641"
         y="197.12074"
         style="stroke-width:0.16308691">e</tspan></text>
    <text
       xml:space="preserve"
       style="font-style:normal;font-weight:normal;font-size:6.52347565px;line-height:1.25;font-family:sans-serif;letter-spacing:0px;word-spacing:0px;fill:#000000;fill-opacity:1;stroke:none;stroke-width:0.16308691"
       x="189.89172"
       y="197.12074"
       id="text4736-0-3-9"
       transform="scale(0.83459329,1.1981884)"
       inkscape:export-xdpi="96"
       inkscape:export-ydpi="96"><tspan
         sodipodi:role="line"
         id="tspan4734-3-0-1"
         x="189.89172"
         y="197.12074"
         style="stroke-width:0.16308691">f</tspan></text>
  </g>
</svg>
